<svg xmlns="http://www.w3.org/2000/svg" width="570.9161376953125" height="597.101318359375" viewBox="-192.18319702148438 -238.80886840820312 570.9161376953125 597.101318359375"><title>Neo4j Graph Visualization</title><desc>Created using Neo4j (http://www.neo4j.com/)</desc><g class="layer relationships"><g class="relationship" transform="translate(144.4247534201798 207.04020495782206) rotate(261.0935743172278)"><path class="outline" fill="#A5ABB6" stroke="none" d="M 25 1.5 L 57.73932491517911 1.5 L 57.73932491517911 -1.5 L 25 -1.5 Z M 95.00599132753263 1.5 L 127.74531624271174 1.5 L 127.74531624271174 4.5 L 136.74531624271174 0 L 127.74531624271174 -4.5 L 127.74531624271174 -1.5 L 95.00599132753263 -1.5 Z"/><text text-anchor="middle" pointer-events="none" font-size="8px" fill="#000000" x="76.37265812135587" y="3" transform="rotate(180 76.37265812135587 0)" font-family="sans-serif">PARENT</text></g><g class="relationship" transform="translate(98.79157252255573 -106.17840549660406) rotate(442.4200496778375)"><path class="outline" fill="#A5ABB6" stroke="none" d="M 25 1.5 L 46.76722708837386 1.5 L 46.76722708837386 -1.5 L 25 -1.5 Z M 84.03389350072737 1.5 L 105.80112058910123 1.5 L 105.80112058910123 4.5 L 114.80112058910123 0 L 105.80112058910123 -4.5 L 105.80112058910123 -1.5 L 84.03389350072737 -1.5 Z"/><text text-anchor="middle" pointer-events="none" font-size="8px" fill="#000000" x="65.40056029455062" y="3" font-family="sans-serif">PARENT</text></g><g class="relationship" transform="translate(-53.10239166171668 34.70169684834438) rotate(361.7163980785475)"><path class="outline" fill="#A5ABB6" stroke="none" d="M 25 1.5 L 58.817310601372895 1.5 L 58.817310601372895 -1.5 L 25 -1.5 Z M 96.08397701372641 1.5 L 129.9012876150993 1.5 L 129.9012876150993 4.5 L 138.9012876150993 0 L 129.9012876150993 -4.5 L 129.9012876150993 -1.5 L 96.08397701372641 -1.5 Z"/><text text-anchor="middle" pointer-events="none" font-size="8px" fill="#000000" x="77.45064380754965" y="3" font-family="sans-serif">PARENT</text></g><g class="relationship" transform="translate(261.10662446847425 157.87724319600915) rotate(517.1522690309466)"><path class="outline" fill="#A5ABB6" stroke="none" d="M 10 1.5 L 32.67475442985181 1.5 L 32.67475442985181 -1.5 L 10 -1.5 Z M 69.94142084220533 1.5 L 92.61617527205713 1.5 L 92.61617527205713 4.5 L 101.61617527205713 0 L 92.61617527205713 -4.5 L 92.61617527205713 -1.5 L 69.94142084220533 -1.5 Z"/><text text-anchor="middle" pointer-events="none" font-size="8px" fill="#000000" x="51.30808763602857" y="3" transform="rotate(180 51.30808763602857 0)" font-family="sans-serif">PARENT</text></g><g class="relationship" transform="translate(206.843913500729 -95.22026568267724) rotate(185.79085877706655)"><path class="outline" fill="#A5ABB6" stroke="none" d="M 10 1.5 L 23.66995679324453 1.5 L 23.66995679324453 -1.5 L 10 -1.5 Z M 60.936623205598046 1.5 L 74.60657999884258 1.5 L 74.60657999884258 4.5 L 83.60657999884258 0 L 74.60657999884258 -4.5 L 74.60657999884258 -1.5 L 60.936623205598046 -1.5 Z"/><text text-anchor="middle" pointer-events="none" font-size="8px" fill="#000000" x="42.30328999942129" y="3" transform="rotate(180 42.30328999942129 0)" font-family="sans-serif">PARENT</text></g><g class="relationship" transform="translate(189.15198309008827 344.0969626617341) rotate(251.92637607410046)"><path class="outline" fill="#A5ABB6" stroke="none" d="M 10 1.5 L 41.45182460431428 1.5 L 41.45182460431428 -1.5 L 10 -1.5 Z M 78.7184910166678 1.5 L 110.17031562098208 1.5 L 110.17031562098208 4.5 L 119.17031562098208 0 L 110.17031562098208 -4.5 L 110.17031562098208 -1.5 L 78.7184910166678 -1.5 Z"/><text text-anchor="middle" pointer-events="none" font-size="8px" fill="#000000" x="60.08515781049104" y="3" transform="rotate(180 60.08515781049104 0)" font-family="sans-serif">PARENT</text></g><g class="relationship" transform="translate(20.580405705475936 219.33246013353073) rotate(354.3316340149005)"><path class="outline" fill="#A5ABB6" stroke="none" d="M 10 1.5 L 31.593112132973886 1.5 L 31.593112132973886 -1.5 L 10 -1.5 Z M 68.8597785453274 1.5 L 90.45289067830129 1.5 L 90.45289067830129 4.5 L 99.45289067830129 0 L 90.45289067830129 -4.5 L 90.45289067830129 -1.5 L 68.8597785453274 -1.5 Z"/><text text-anchor="middle" pointer-events="none" font-size="8px" fill="#000000" x="50.226445339150644" y="3" font-family="sans-serif">PARENT</text></g><g class="relationship" transform="translate(92.76072167864703 124.88366414873279) rotate(417.83632002550166)"><path class="outline" fill="#A5ABB6" stroke="none" d="M 10 1.5 L 17.892096656694257 1.5 L 17.892096656694257 -1.5 L 10 -1.5 Z M 55.15876306904777 1.5 L 63.05085972574203 1.5 L 63.05085972574203 4.5 L 72.05085972574203 0 L 63.05085972574203 -4.5 L 63.05085972574203 -1.5 L 55.15876306904777 -1.5 Z"/><text text-anchor="middle" pointer-events="none" font-size="8px" fill="#000000" x="36.525429862871015" y="3" font-family="sans-serif">PARENT</text></g><g class="relationship" transform="translate(10.546140763058993 273.78034657545203) rotate(333.5031783104955)"><path class="outline" fill="#A5ABB6" stroke="none" d="M 10 1.5 L 44.16260490234738 1.5 L 44.16260490234738 -1.5 L 10 -1.5 Z M 81.4292713147009 1.5 L 115.59187621704828 1.5 L 115.59187621704828 4.5 L 124.59187621704828 0 L 115.59187621704828 -4.5 L 115.59187621704828 -1.5 L 81.4292713147009 -1.5 Z"/><text text-anchor="middle" pointer-events="none" font-size="8px" fill="#000000" x="62.79593810852414" y="3" font-family="sans-serif">PARENT</text></g><g class="relationship" transform="translate(89.73428931764809 -224.80886305949815) rotate(445.6340109121267)"><path class="outline" fill="#A5ABB6" stroke="none" d="M 10 1.5 L 28.854522362492716 1.5 L 28.854522362492716 -1.5 L 10 -1.5 Z M 66.12118877484623 1.5 L 84.97571113733895 1.5 L 84.97571113733895 4.5 L 93.97571113733895 0 L 84.97571113733895 -4.5 L 84.97571113733895 -1.5 L 66.12118877484623 -1.5 Z"/><text text-anchor="middle" pointer-events="none" font-size="8px" fill="#000000" x="47.487855568669474" y="3" font-family="sans-serif">PARENT</text></g><g class="relationship" transform="translate(205.44868023267293 -163.81032950294787) rotate(511.61553138328145)"><path class="outline" fill="#A5ABB6" stroke="none" d="M 10 1.5 L 29.98262444888411 1.5 L 29.98262444888411 -1.5 L 10 -1.5 Z M 67.24929086123763 1.5 L 87.23191531012174 1.5 L 87.23191531012174 4.5 L 96.23191531012174 0 L 87.23191531012174 -4.5 L 87.23191531012174 -1.5 L 67.24929086123763 -1.5 Z"/><text text-anchor="middle" pointer-events="none" font-size="8px" fill="#000000" x="48.61595765506087" y="3" transform="rotate(180 48.61595765506087 0)" font-family="sans-serif">PARENT</text></g><g class="relationship" transform="translate(157.17797909629797 -209.97576232427437) rotate(479.3579184857887)"><path class="outline" fill="#A5ABB6" stroke="none" d="M 10 1.5 L 28.912581340929343 1.5 L 28.912581340929343 -1.5 L 10 -1.5 Z M 66.17924775328285 1.5 L 85.0918290942122 1.5 L 85.0918290942122 4.5 L 94.0918290942122 0 L 85.0918290942122 -4.5 L 85.0918290942122 -1.5 L 66.17924775328285 -1.5 Z"/><text text-anchor="middle" pointer-events="none" font-size="8px" fill="#000000" x="47.5459145471061" y="3" transform="rotate(180 47.5459145471061 0)" font-family="sans-serif">PARENT</text></g><g class="relationship" transform="translate(-16.992264416722467 -95.35842848580174) rotate(354.6612254717861)"><path class="outline" fill="#A5ABB6" stroke="none" d="M 10 1.5 L 27.510816970121397 1.5 L 27.510816970121397 -1.5 L 10 -1.5 Z M 64.77748338247491 1.5 L 82.28830035259631 1.5 L 82.28830035259631 4.5 L 91.28830035259631 0 L 82.28830035259631 -4.5 L 82.28830035259631 -1.5 L 64.77748338247491 -1.5 Z"/><text text-anchor="middle" pointer-events="none" font-size="8px" fill="#000000" x="46.144150176298155" y="3" font-family="sans-serif">PARENT</text></g><g class="relationship" transform="translate(32.85824424379071 162.63331345444087) rotate(381.7040721381471)"><path class="outline" fill="#A5ABB6" stroke="none" d="M 10 1.5 L 29.406357796522407 1.5 L 29.406357796522407 -1.5 L 10 -1.5 Z M 66.67302420887592 1.5 L 86.07938200539833 1.5 L 86.07938200539833 4.5 L 95.07938200539833 0 L 86.07938200539833 -4.5 L 86.07938200539833 -1.5 L 66.67302420887592 -1.5 Z"/><text text-anchor="middle" pointer-events="none" font-size="8px" fill="#000000" x="48.039691002699165" y="3" font-family="sans-serif">PARENT</text></g><g class="relationship" transform="translate(88.64110592992019 344.2924343383256) rotate(292.11838027538863)"><path class="outline" fill="#A5ABB6" stroke="none" d="M 10 1.5 L 43.444311527636 1.5 L 43.444311527636 -1.5 L 10 -1.5 Z M 80.71097793998952 1.5 L 114.15528946762552 1.5 L 114.15528946762552 4.5 L 123.15528946762552 0 L 114.15528946762552 -4.5 L 114.15528946762552 -1.5 L 80.71097793998952 -1.5 Z"/><text text-anchor="middle" pointer-events="none" font-size="8px" fill="#000000" x="62.07764473381276" y="3" font-family="sans-serif">PARENT</text></g><g class="relationship" transform="translate(61.491768486628956 293.88775630170215) rotate(313.67918663076864)"><path class="outline" fill="#A5ABB6" stroke="none" d="M 10 1.5 L 29.40910421190376 1.5 L 29.40910421190376 -1.5 L 10 -1.5 Z M 66.67577062425727 1.5 L 86.08487483616103 1.5 L 86.08487483616103 4.5 L 95.08487483616103 0 L 86.08487483616103 -4.5 L 86.08487483616103 -1.5 L 66.67577062425727 -1.5 Z"/><text text-anchor="middle" pointer-events="none" font-size="8px" fill="#000000" x="48.04243741808052" y="3" font-family="sans-serif">PARENT</text></g><g class="relationship" transform="translate(30.95571021962008 -203.68700383191475) rotate(415.1740085896034)"><path class="outline" fill="#A5ABB6" stroke="none" d="M 10 1.5 L 28.758650604140186 1.5 L 28.758650604140186 -1.5 L 10 -1.5 Z M 66.0253170164937 1.5 L 84.78396762063389 1.5 L 84.78396762063389 4.5 L 93.78396762063389 0 L 84.78396762063389 -4.5 L 84.78396762063389 -1.5 L 66.0253170164937 -1.5 Z"/><text text-anchor="middle" pointer-events="none" font-size="8px" fill="#000000" x="47.391983810316944" y="3" font-family="sans-serif">PARENT</text></g><g class="relationship" transform="translate(-12.33171590907503 -158.3324538981288) rotate(385.1423085886131)"><path class="outline" fill="#A5ABB6" stroke="none" d="M 10 1.5 L 30.74343356376638 1.5 L 30.74343356376638 -1.5 L 10 -1.5 Z M 68.0100999761199 1.5 L 88.75353353988628 1.5 L 88.75353353988628 4.5 L 97.75353353988628 0 L 88.75353353988628 -4.5 L 88.75353353988628 -1.5 L 68.0100999761199 -1.5 Z"/><text text-anchor="middle" pointer-events="none" font-size="8px" fill="#000000" x="49.37676676994314" y="3" font-family="sans-serif">PARENT</text></g><g class="relationship" transform="translate(139.65919439654886 319.3925939213694) rotate(272.4288121441639)"><path class="outline" fill="#A5ABB6" stroke="none" d="M 10 1.5 L 25.593372767550576 1.5 L 25.593372767550576 -1.5 L 10 -1.5 Z M 62.86003917990409 1.5 L 78.45341194745467 1.5 L 78.45341194745467 4.5 L 87.45341194745467 0 L 78.45341194745467 -4.5 L 78.45341194745467 -1.5 L 62.86003917990409 -1.5 Z"/><text text-anchor="middle" pointer-events="none" font-size="8px" fill="#000000" x="44.226705973727334" y="3" font-family="sans-serif">PARENT</text></g><g class="relationship" transform="translate(267.9988915250583 267.7632153335891) rotate(206.16900839549572)"><path class="outline" fill="#A5ABB6" stroke="none" d="M 10 1.5 L 38.210423949899294 1.5 L 38.210423949899294 -1.5 L 10 -1.5 Z M 75.47709036225281 1.5 L 103.6875143121521 1.5 L 103.6875143121521 4.5 L 112.6875143121521 0 L 103.6875143121521 -4.5 L 103.6875143121521 -1.5 L 75.47709036225281 -1.5 Z"/><text text-anchor="middle" pointer-events="none" font-size="8px" fill="#000000" x="56.84375715607605" y="3" transform="rotate(180 56.84375715607605 0)" font-family="sans-serif">PARENT</text></g><g class="relationship" transform="translate(-178.18320059843475 40.693229357337536) rotate(357.2575543264343)"><path class="outline" fill="#A5ABB6" stroke="none" d="M 10 1.5 L 31.978780689758132 1.5 L 31.978780689758132 -1.5 L 10 -1.5 Z M 69.24544710211165 1.5 L 91.22422779186978 1.5 L 91.22422779186978 4.5 L 100.22422779186978 0 L 91.22422779186978 -4.5 L 91.22422779186978 -1.5 L 69.24544710211165 -1.5 Z"/><text text-anchor="middle" pointer-events="none" font-size="8px" fill="#000000" x="50.61211389593489" y="3" font-family="sans-serif">PARENT</text></g><g class="relationship" transform="translate(205.09558391595684 116.83435424296775) rotate(483.92406637375586)"><path class="outline" fill="#A5ABB6" stroke="none" d="M 10 1.5 L 23.722083212607792 1.5 L 23.722083212607792 -1.5 L 10 -1.5 Z M 60.98874962496131 1.5 L 74.7108328375691 1.5 L 74.7108328375691 4.5 L 83.7108328375691 0 L 74.7108328375691 -4.5 L 74.7108328375691 -1.5 L 60.98874962496131 -1.5 Z"/><text text-anchor="middle" pointer-events="none" font-size="8px" fill="#000000" x="42.35541641878455" y="3" transform="rotate(180 42.35541641878455 0)" font-family="sans-serif">PARENT</text></g><g class="relationship" transform="translate(225.9100047934991 301.4338013531444) rotate(229.19760541122326)"><path class="outline" fill="#A5ABB6" stroke="none" d="M 10 1.5 L 31.71648081081942 1.5 L 31.71648081081942 -1.5 L 10 -1.5 Z M 68.98314722317294 1.5 L 90.69962803399235 1.5 L 90.69962803399235 4.5 L 99.69962803399235 0 L 90.69962803399235 -4.5 L 90.69962803399235 -1.5 L 68.98314722317294 -1.5 Z"/><text text-anchor="middle" pointer-events="none" font-size="8px" fill="#000000" x="50.34981401699618" y="3" transform="rotate(180 50.34981401699618 0)" font-family="sans-serif">PARENT</text></g><g class="relationship" transform="translate(273.5672508872046 213.323556529993) rotate(182.7854955454385)"><path class="outline" fill="#A5ABB6" stroke="none" d="M 10 1.5 L 34.01429853505566 1.5 L 34.01429853505566 -1.5 L 10 -1.5 Z M 71.28096494740917 1.5 L 95.29526348246483 1.5 L 95.29526348246483 4.5 L 104.29526348246483 0 L 95.29526348246483 -4.5 L 95.29526348246483 -1.5 L 71.28096494740917 -1.5 Z"/><text text-anchor="middle" pointer-events="none" font-size="8px" fill="#000000" x="52.647631741232416" y="3" transform="rotate(180 52.647631741232416 0)" font-family="sans-serif">PARENT</text></g><g class="relationship" transform="translate(118.22199311303352 39.83556261084132) rotate(350.82071887533425)"><path class="outline" fill="#A5ABB6" stroke="none" d="M 32.5 1.5 L 82.77643148524369 1.5 L 82.77643148524369 -1.5 L 32.5 -1.5 Z M 120.0430978975972 1.5 L 170.3195293828409 1.5 L 170.3195293828409 4.5 L 179.3195293828409 0 L 170.3195293828409 -4.5 L 170.3195293828409 -1.5 L 120.0430978975972 -1.5 Z"/><text text-anchor="middle" pointer-events="none" font-size="8px" fill="#000000" x="101.40976469142045" y="3" font-family="sans-serif">PARENT</text></g></g><g class="layer nodes"><g class="node" transform="translate(118.22199311303352,39.83556261084132)"><circle class="outline" cx="0" cy="0" r="32.5" fill="#FFE081" stroke="#9AA1AC" stroke-width="2px"/><text text-anchor="middle" pointer-events="none" font-family="sans-serif" dy="2.03125" font-size="32.5" fill="#FFFFFF"/><text text-anchor="middle" pointer-events="none" y="5" font-size="10px" fill="#FFFFFF" font-family="sans-serif"> Glomerell…</text></g><g class="node" transform="translate(144.4247534201798,207.04020495782206)"><circle class="outline" cx="0" cy="0" r="25" fill="#57C7E3" stroke="#23b3d7" stroke-width="2px"/><text text-anchor="middle" pointer-events="none" font-family="sans-serif" dy="1.5625" font-size="25" fill="#FFFFFF"/><text text-anchor="middle" pointer-events="none" y="5" font-size="10px" fill="#FFFFFF" font-family="sans-serif"> Plectos…</text></g><g class="node" transform="translate(98.79157252255573,-106.17840549660406)"><circle class="outline" cx="0" cy="0" r="25" fill="#57C7E3" stroke="#23b3d7" stroke-width="2px"/><text text-anchor="middle" pointer-events="none" font-family="sans-serif" dy="1.5625" font-size="25" fill="#FFFFFF"/><text text-anchor="middle" pointer-events="none" y="5" font-size="10px" fill="#FFFFFF" font-family="sans-serif"> Glomer…</text></g><g class="node" transform="translate(-53.10239166171668,34.70169684834438)"><circle class="outline" cx="0" cy="0" r="25" fill="#57C7E3" stroke="#23b3d7" stroke-width="2px"/><text text-anchor="middle" pointer-events="none" font-family="sans-serif" dy="1.5625" font-size="25" fill="#FFFFFF"/><text text-anchor="middle" pointer-events="none" y="5" font-size="25" fill="#FFFFFF" dy="1.5625" font-family="sans-serif"/><text text-anchor="middle" pointer-events="none" y="0" font-size="10px" fill="#FFFFFF" font-family="sans-serif"> Not</text><text text-anchor="middle" pointer-events="none" y="10" font-size="10px" fill="#FFFFFF" font-family="sans-serif"> assign…</text></g><g class="node" transform="translate(261.10662446847425,157.87724319600915)"><circle class="outline" cx="0" cy="0" r="10" fill="#569480" stroke="#447666" stroke-width="2px"/><text text-anchor="middle" pointer-events="none" font-family="sans-serif" dy="0.625" font-size="10" fill="#FFFFFF"/><text text-anchor="middle" pointer-events="none" y="5" font-size="10px" fill="#FFFFFF" font-family="sans-serif"> A…</text></g><g class="node" transform="translate(206.843913500729,-95.22026568267724)"><circle class="outline" cx="0" cy="0" r="10" fill="#569480" stroke="#447666" stroke-width="2px"/><text text-anchor="middle" pointer-events="none" font-family="sans-serif" dy="0.625" font-size="10" fill="#FFFFFF"/><text text-anchor="middle" pointer-events="none" y="5" font-size="10px" fill="#FFFFFF" font-family="sans-serif"> B…</text></g><g class="node" transform="translate(189.15198309008827,344.0969626617341)"><circle class="outline" cx="0" cy="0" r="10" fill="#569480" stroke="#447666" stroke-width="2px"/><text text-anchor="middle" pointer-events="none" font-family="sans-serif" dy="0.625" font-size="10" fill="#FFFFFF"/><text text-anchor="middle" pointer-events="none" y="5" font-size="10px" fill="#FFFFFF" font-family="sans-serif"> B…</text></g><g class="node" transform="translate(20.580405705475936,219.33246013353073)"><circle class="outline" cx="0" cy="0" r="10" fill="#569480" stroke="#447666" stroke-width="2px"/><text text-anchor="middle" pointer-events="none" font-family="sans-serif" dy="0.625" font-size="10" fill="#FFFFFF"/><text text-anchor="middle" pointer-events="none" y="5" font-size="10px" fill="#FFFFFF" font-family="sans-serif"> B…</text></g><g class="node" transform="translate(92.76072167864703,124.88366414873279)"><circle class="outline" cx="0" cy="0" r="10" fill="#569480" stroke="#447666" stroke-width="2px"/><text text-anchor="middle" pointer-events="none" font-family="sans-serif" dy="0.625" font-size="10" fill="#FFFFFF"/><text text-anchor="middle" pointer-events="none" y="5" font-size="10px" fill="#FFFFFF" font-family="sans-serif"> C…</text></g><g class="node" transform="translate(10.546140763058993,273.78034657545203)"><circle class="outline" cx="0" cy="0" r="10" fill="#569480" stroke="#447666" stroke-width="2px"/><text text-anchor="middle" pointer-events="none" font-family="sans-serif" dy="0.625" font-size="10" fill="#FFFFFF"/><text text-anchor="middle" pointer-events="none" y="5" font-size="10px" fill="#FFFFFF" font-family="sans-serif"> C…</text></g><g class="node" transform="translate(89.73428931764809,-224.80886305949815)"><circle class="outline" cx="0" cy="0" r="10" fill="#569480" stroke="#447666" stroke-width="2px"/><text text-anchor="middle" pointer-events="none" font-family="sans-serif" dy="0.625" font-size="10" fill="#FFFFFF"/><text text-anchor="middle" pointer-events="none" y="5" font-size="10px" fill="#FFFFFF" font-family="sans-serif"> C…</text></g><g class="node" transform="translate(205.44868023267293,-163.81032950294787)"><circle class="outline" cx="0" cy="0" r="10" fill="#569480" stroke="#447666" stroke-width="2px"/><text text-anchor="middle" pointer-events="none" font-family="sans-serif" dy="0.625" font-size="10" fill="#FFFFFF"/><text text-anchor="middle" pointer-events="none" y="5" font-size="10px" fill="#FFFFFF" font-family="sans-serif"> C…</text></g><g class="node" transform="translate(157.17797909629797,-209.97576232427437)"><circle class="outline" cx="0" cy="0" r="10" fill="#569480" stroke="#447666" stroke-width="2px"/><text text-anchor="middle" pointer-events="none" font-family="sans-serif" dy="0.625" font-size="10" fill="#FFFFFF"/><text text-anchor="middle" pointer-events="none" y="5" font-size="10px" fill="#FFFFFF" font-family="sans-serif"> C…</text></g><g class="node" transform="translate(-16.992264416722467,-95.35842848580174)"><circle class="outline" cx="0" cy="0" r="10" fill="#569480" stroke="#447666" stroke-width="2px"/><text text-anchor="middle" pointer-events="none" font-family="sans-serif" dy="0.625" font-size="10" fill="#FFFFFF"/><text text-anchor="middle" pointer-events="none" y="5" font-size="10px" fill="#FFFFFF" font-family="sans-serif"> E…</text></g><g class="node" transform="translate(32.85824424379071,162.63331345444087)"><circle class="outline" cx="0" cy="0" r="10" fill="#569480" stroke="#447666" stroke-width="2px"/><text text-anchor="middle" pointer-events="none" font-family="sans-serif" dy="0.625" font-size="10" fill="#FFFFFF"/><text text-anchor="middle" pointer-events="none" y="5" font-size="10px" fill="#FFFFFF" font-family="sans-serif"> F…</text></g><g class="node" transform="translate(88.64110592992019,344.2924343383256)"><circle class="outline" cx="0" cy="0" r="10" fill="#569480" stroke="#447666" stroke-width="2px"/><text text-anchor="middle" pointer-events="none" font-family="sans-serif" dy="0.625" font-size="10" fill="#FFFFFF"/><text text-anchor="middle" pointer-events="none" y="5" font-size="10px" fill="#FFFFFF" font-family="sans-serif"> F…</text></g><g class="node" transform="translate(61.491768486628956,293.88775630170215)"><circle class="outline" cx="0" cy="0" r="10" fill="#569480" stroke="#447666" stroke-width="2px"/><text text-anchor="middle" pointer-events="none" font-family="sans-serif" dy="0.625" font-size="10" fill="#FFFFFF"/><text text-anchor="middle" pointer-events="none" y="5" font-size="10px" fill="#FFFFFF" font-family="sans-serif"/></g><g class="node" transform="translate(30.95571021962008,-203.68700383191475)"><circle class="outline" cx="0" cy="0" r="10" fill="#569480" stroke="#447666" stroke-width="2px"/><text text-anchor="middle" pointer-events="none" font-family="sans-serif" dy="0.625" font-size="10" fill="#FFFFFF"/><text text-anchor="middle" pointer-events="none" y="5" font-size="10px" fill="#FFFFFF" font-family="sans-serif"/></g><g class="node" transform="translate(-12.33171590907503,-158.3324538981288)"><circle class="outline" cx="0" cy="0" r="10" fill="#569480" stroke="#447666" stroke-width="2px"/><text text-anchor="middle" pointer-events="none" font-family="sans-serif" dy="0.625" font-size="10" fill="#FFFFFF"/><text text-anchor="middle" pointer-events="none" y="5" font-size="10px" fill="#FFFFFF" font-family="sans-serif"/></g><g class="node" transform="translate(139.65919439654886,319.3925939213694)"><circle class="outline" cx="0" cy="0" r="10" fill="#569480" stroke="#447666" stroke-width="2px"/><text text-anchor="middle" pointer-events="none" font-family="sans-serif" dy="0.625" font-size="10" fill="#FFFFFF"/><text text-anchor="middle" pointer-events="none" y="5" font-size="10px" fill="#FFFFFF" font-family="sans-serif"> L…</text></g><g class="node" transform="translate(267.9988915250583,267.7632153335891)"><circle class="outline" cx="0" cy="0" r="10" fill="#569480" stroke="#447666" stroke-width="2px"/><text text-anchor="middle" pointer-events="none" font-family="sans-serif" dy="0.625" font-size="10" fill="#FFFFFF"/><text text-anchor="middle" pointer-events="none" y="5" font-size="10px" fill="#FFFFFF" font-family="sans-serif"> L…</text></g><g class="node" transform="translate(-178.18320059843475,40.693229357337536)"><circle class="outline" cx="0" cy="0" r="10" fill="#569480" stroke="#447666" stroke-width="2px"/><text text-anchor="middle" pointer-events="none" font-family="sans-serif" dy="0.625" font-size="10" fill="#FFFFFF"/><text text-anchor="middle" pointer-events="none" y="5" font-size="10px" fill="#FFFFFF" font-family="sans-serif"/></g><g class="node" transform="translate(205.09558391595684,116.83435424296775)"><circle class="outline" cx="0" cy="0" r="10" fill="#569480" stroke="#447666" stroke-width="2px"/><text text-anchor="middle" pointer-events="none" font-family="sans-serif" dy="0.625" font-size="10" fill="#FFFFFF"/><text text-anchor="middle" pointer-events="none" y="5" font-size="10px" fill="#FFFFFF" font-family="sans-serif"/></g><g class="node" transform="translate(225.9100047934991,301.4338013531444)"><circle class="outline" cx="0" cy="0" r="10" fill="#569480" stroke="#447666" stroke-width="2px"/><text text-anchor="middle" pointer-events="none" font-family="sans-serif" dy="0.625" font-size="10" fill="#FFFFFF"/><text text-anchor="middle" pointer-events="none" y="5" font-size="10px" fill="#FFFFFF" font-family="sans-serif"/></g><g class="node" transform="translate(273.5672508872046,213.323556529993)"><circle class="outline" cx="0" cy="0" r="10" fill="#569480" stroke="#447666" stroke-width="2px"/><text text-anchor="middle" pointer-events="none" font-family="sans-serif" dy="0.625" font-size="10" fill="#FFFFFF"/><text text-anchor="middle" pointer-events="none" y="5" font-size="10px" fill="#FFFFFF" font-family="sans-serif"/></g><g class="node" transform="translate(334.7329200199527,4.848786557344646)"><circle class="outline" cx="0" cy="0" r="40" fill="#F16667" stroke="#eb2728" stroke-width="2px"/><text text-anchor="middle" pointer-events="none" font-family="sans-serif" dy="2.5" font-size="40" fill="#FFFFFF"/><text text-anchor="middle" pointer-events="none" y="5" font-size="10px" fill="#FFFFFF" font-family="sans-serif"> Sordariomyce…</text></g></g></svg>